PathFileType	4	(X/Y/Z)	c:/Users/goper/Files/vsCode/490R/osim_files/C11/C11_SSWS_05.trc
DataRate	CameraRate	NumFrames	NumMarkers	Units                	OrigDataRate	OrigDataStartFrame	OrigNumFrames
120.00	120.00	4	36	mm	120.0	1025	1366
                Frame#	Time	LPSI			LASI			LTH1			LTH2			LTH3			LTH4			LLFE			LMFE			LSH1			LSH2			LSH3			LSH4			LLMA			LMMA			LCAL			LMTP			LTOE			LMTP			RPSI			RASI			RTH1			RTH2			RTH3			RTH4			RLFE			RMFE			RSH1			RSH2			RSH3			RSH4			RLMA			RMMA			RCAL			RMTP			RTOE			RMTP		
		X1	Y1	Z1	X2	Y2	Z2	X3	Y3	Z3	X4	Y4	Z4	X5	Y5	Z5	X6	Y6	Z6	X7	Y7	Z7	X8	Y8	Z8	X9	Y9	Z9	X10	Y10	Z10	X11	Y11	Z11	X12	Y12	Z12	X13	Y13	Z13	X14	Y14	Z14	X15	Y15	Z15	X16	Y16	Z16	X17	Y17	Z17	X18	Y18	Z18	X19	Y19	Z19	X20	Y20	Z20	X21	Y21	Z21	X22	Y22	Z22	X23	Y23	Z23	X24	Y24	Z24	X25	Y25	Z25	X26	Y26	Z26	X27	Y27	Z27	X28	Y28	Z28	X29	Y29	Z29	X30	Y30	Z30	X31	Y31	Z31	X32	Y32	Z32	X33	Y33	Z33	X34	Y34	Z34	X35	Y35	Z35	X36	Y36	Z36

1025	8.53333	0.00000	0.00000	0.00000	-3565.26562	990.68726	317.14227	-3565.50708	589.34668	364.94833	-3706.48462	546.66235	337.73621	-3620.17700	608.93488	383.26022	-3633.28467	564.62958	376.26965	-3632.22778	495.27231	370.54562	-3664.81787	510.06436	261.24203	-3632.16260	378.55276	374.11841	-3648.53125	339.66037	362.14212	-3683.58838	401.46747	385.51880	-3696.44971	358.90359	381.15701	-3822.24219	104.65116	314.52930	-3849.50488	162.49710	239.55296	-3801.74146	62.84996	246.44142	-3944.50684	110.33485	356.98587	-3993.73779	189.85126	314.45544	-3978.32324	169.88832	262.39090	-3383.89331	1001.14923	179.77664	-3542.81519	980.75623	86.83414	-3399.65698	634.19220	57.56701	-3401.58960	588.38855	62.47714	0.00000	0.00000	0.00000	-3450.31299	583.96051	73.58887	0.00000	0.00000	0.00000	-3369.96313	495.90878	197.99365	-3300.08374	411.59247	75.16368	-3470.22754	405.84540	91.92645	-3361.70361	396.84784	82.47003	-3344.03491	351.70764	85.00863	-3245.48486	109.88004	148.44427	-3270.20850	116.59211	240.29466	-3176.09961	74.13786	200.58763	-3395.16040	57.48458	217.86201	-3399.12476	69.09406	168.87270	-3353.50415	47.91161	105.76715
1026	8.54167	0.00000	0.00000	0.00000	-3574.89673	988.86121	317.90222	-3577.62207	588.91425	361.76355	-3717.36060	546.85541	337.47275	-3632.40723	608.38898	382.18900	-3646.22607	564.35059	374.92783	-3646.51782	495.13907	369.10376	-3680.88892	510.23727	260.78864	0.00000	0.00000	0.00000	-3661.26221	338.95493	359.04428	-3696.66211	399.95129	384.19839	-3709.02319	357.26462	379.30002	-3832.57812	103.05600	312.21326	-3859.79883	160.70067	236.96632	-3813.32764	60.49887	244.19482	-3954.34033	110.40907	355.68655	-4002.38135	190.35905	313.43002	-3988.02783	170.15622	260.94623	-3393.69141	999.44775	180.32639	-3552.32080	978.85419	87.16865	-3406.67041	633.30933	57.93142	-3409.05762	587.15918	62.66895	0.00000	0.00000	0.00000	-3457.26782	582.76813	73.94760	0.00000	0.00000	0.00000	-3375.93042	495.28723	198.25339	-3304.81885	411.76810	75.32106	-3476.96729	406.83319	91.54066	-3366.41821	396.36487	82.75072	-3348.18945	351.52997	85.25784	-3246.02637	110.69563	148.43156	-3270.57446	117.19170	240.41933	-3176.29468	75.22935	200.51543	-3395.50903	57.47301	217.91159	-3400.16724	69.66348	168.68068	-3353.56348	47.92017	105.78627
1027	8.55000	0.00000	0.00000	0.00000	-3584.66846	987.07886	318.44897	-3590.68848	588.17175	360.25574	-3728.11108	547.04224	337.22961	-3645.06958	608.20514	381.27625	-3659.33130	564.22290	373.76971	-3661.04077	495.23318	367.77811	-3696.46973	510.78616	260.52997	0.00000	0.00000	0.00000	-3673.82788	338.50616	357.23792	-3710.39795	398.84637	382.91479	-3721.86792	355.89130	377.77240	-3840.88135	101.89459	309.08447	-3869.74316	157.74870	233.56033	-3822.20459	58.15459	241.70485	-3961.69482	109.03359	354.37625	-4011.69702	187.29019	311.53284	-3998.10815	166.16641	259.09488	-3402.96875	997.87079	180.54268	-3561.81665	976.99463	87.44884	-3414.20068	632.31732	58.47880	-3416.97729	586.01868	63.18098	0.00000	0.00000	0.00000	-3464.51709	581.46289	74.50198	0.00000	0.00000	0.00000	-3382.31714	494.49698	198.68430	-3310.25146	411.96414	75.54234	-3483.74731	407.82297	91.14479	-3371.42651	395.76801	83.11430	-3352.57642	351.18942	85.59550	-3246.73950	111.69799	148.34035	-3271.41113	118.05442	240.48427	-3176.80396	76.51447	200.46638	-3395.73169	57.35065	217.85840	-3400.53271	69.42831	168.62059	-3353.62134	47.91221	105.83986
1028	8.55833	0.00000	0.00000	0.00000	-3594.66626	985.56702	318.90152	-3603.73486	587.66193	359.14505	-3738.73730	547.22290	337.00656	-3657.95410	608.19495	380.44452	-3672.41870	564.27014	372.72897	-3675.46387	495.36639	366.32486	-3711.62402	511.81009	260.01065	0.00000	0.00000	0.00000	-3686.63110	338.22189	356.22989	-3724.17920	398.31522	381.33945	-3734.99780	355.07501	375.98230	-3847.91553	100.84679	305.47818	-3879.22852	154.04634	229.91362	-3828.90259	56.08390	239.04034	-3968.15356	106.71248	354.71481	-4021.18652	181.10947	309.30222	-4008.18555	158.98712	257.13052	-3412.89282	996.21454	180.91620	-3571.31860	975.12762	87.64134	-3422.13477	631.23926	59.09019	-3424.95312	584.72797	63.77382	0.00000	0.00000	0.00000	-3472.19287	580.14160	75.06924	0.00000	0.00000	0.00000	-3389.49780	493.57950	199.18082	-3315.94092	412.12903	75.91882	-3490.56665	408.81470	90.73915	-3376.93848	395.09305	83.54575	-3357.36108	350.89099	85.96259	-3247.59058	112.81370	148.25764	-3272.84985	117.92594	238.88255	-3180.97217	76.46944	200.98892	-3395.86157	57.22163	217.72240	-3400.85205	69.15364	168.55013	-3353.72949	47.91199	105.87468
